<?xml version="1.0" standalone="no"?><!DOCTYPE svg PUBLIC "-//W3C//DTD SVG 1.1//EN" "http://www.w3.org/Graphics/SVG/1.1/DTD/svg11.dtd"><svg t="1750153164414" class="icon" viewBox="0 0 1024 1024" version="1.1" xmlns="http://www.w3.org/2000/svg" p-id="1521" xmlns:xlink="http://www.w3.org/1999/xlink" width="200" height="200"><path d="M913.165902 406.833783c0-63.866466-30.169579-120.779094-76.971931-157.358297a50.09182 50.09182 0 0 0-3.156438-11.251108C778.229196 106.113551 667.512003 36.280893 512.870741 36.280893 359.821808 36.280893 249.213457 107.90744 193.00226 243.412546c-0.681275 1.644734-1.261769 3.301561-1.761639 4.966451C143.640088 284.909825 112.873891 342.334417 112.873891 406.833783v40.086357c0 45.726019 15.483879 87.884418 41.436811 121.573242 10.565802 98.091442 45.101182 175.881709 111.551654 251.204876 11.904164 13.496492 23.195585 27.646041 34.116134 41.336031 48.229401 60.452031 102.892614 128.970514 213.18653 128.970514 127.628121 0 186.499917-79.709123 243.424639-156.797959 4.079585-5.506633 8.195451-11.093891 12.391941-16.713399 55.348519-74.158146 89.992741-176.954011 102.844239-242.457148 0.443433-2.269571 0.677243-4.551237 0.802211-6.804683 26.283492-34.543442 40.541883-76.375312 40.541883-120.331631v-40.0662h-0.004031zM512.870741 137.061153c82.220567 0 142.4791 22.590903 184.653623 70.086624H332.272516C374.991253 160.139833 434.69751 137.061153 512.870741 137.061153z m162.651277 636.290279c-56.235385 76.149564-88.997032 115.885205-162.352967 115.885205-59.024982 0-86.679086-31.217693-134.404585-91.040856-11.682448-14.649419-23.768016-29.802738-37.324977-45.157618-31.447472-35.647993-53.409506-71.050083-67.788834-110.269729a200.633341 200.633341 0 0 0 38.913274 3.825618h240.328669c27.831477 0 50.39013-22.562685 50.39013-50.390129 0-27.819383-22.558653-50.39013-50.39013-50.39013H312.559897C258.021652 545.825886 213.65415 501.458385 213.65415 446.92014v-40.086357c0-54.538245 44.367502-98.905747 98.905747-98.905746h400.932092c54.526152 0 98.893653 44.367502 98.893653 98.91784l0.008062 40.078294c0 54.526152-44.367502 98.893653-98.897684 98.893653-27.827445 0-50.39013 22.570747-50.39013 50.39013 0 27.827445 22.562685 50.39013 50.39013 50.39013 11.279327 0 22.409499-0.991678 33.326016-2.821848-15.15332 40.102481-35.20456 81.091828-58.605736 112.454645-4.301301 5.7606-8.521979 11.476856-12.694282 17.120551z" p-id="1522"></path><path d="M352.924407 442.493871h-37.324977c-27.831477 0-50.39013-22.562685-50.39013-50.39013 0-27.819383 22.558653-50.39013 50.39013-50.39013h37.324977c27.831477 0 50.39013 22.570747 50.39013 50.39013 0 27.827445-22.558653 50.39013-50.39013 50.39013z" p-id="1523"></path></svg>